# xmcd
# Track frame offsets:
# 150
# 16617
# 35743
# 47088
# 61169
# 70816
# 85769
# 97848
# 112681
# 128501
# 139954
# 152847
# 164218
# 179440
# 198281
# 212366
# 223747
# 239053
# 255873
# 269973
# 280407
# 295442
#
# Disc length: 4160 seconds
# Revision: 0
# Processed by: cddbd v1.5.1PL2 Copyright (c) Steve Scherf et al.
# Submitted via: VisiTrax 2.9.10.228 - For more info visit www.synapsa.com
#
DISCID=47103e16
DTITLE=Blanch.Arthur - Gems and A Few Jewels.  Vol. 3.
DYEAR=2003
DGENRE=Country
TTITLE0=My Country.
TTITLE1=Australia's Robin Hood.
TTITLE2=I Don't Wanna Cry.
TTITLE3=Simple Little Words.
TTITLE4=I can Love You.
TTITLE5=Rose Coloured Glasses.
TTITLE6=You're Such A Stupid Man.
TTITLE7=I've Cried A Mile.
TTITLE8=Send All The Ghosts Away.
TTITLE9=I've Already Stayed Too Long.
TTITLE10=Another Pretty Country Song.
TTITLE11=Sing A Sad Song.
TTITLE12=I'M Not Losin' Any Sleep.
TTITLE13=Music Man.
TTITLE14=Morning Breeze.
TTITLE15=Young Blood and Sweet Country Music.
TTITLE16=For Better Or Worse.
TTITLE17=Nobody.
TTITLE18=This Broken Heart.
TTITLE19=Green Light In Your Brown Eyes.
TTITLE20=I'm Lonely.
TTITLE21=I'm Not Getting Any Better At Goodbyes.
EXTD=
EXTT0=
EXTT1=
EXTT2=
EXTT3=
EXTT4=
EXTT5=
EXTT6=
EXTT7=
EXTT8=
EXTT9=
EXTT10=
EXTT11=
EXTT12=
EXTT13=
EXTT14=
EXTT15=
EXTT16=
EXTT17=
EXTT18=
EXTT19=
EXTT20=
EXTT21=
PLAYORDER=
